<svg height="512pt" viewBox="0 0 512.00033 512" width="512pt" xmlns="http://www.w3.org/2000/svg"><path d="m512 256.269531c0 1.628907-.019531 3.261719-.058594 4.878907-.050781 2.601562-.140625 5.203124-.269531 7.792968-.042969.867188-.089844 1.738282-.140625 2.609375-.230469 3.800781-.542969 7.578125-.929688 11.339844-13.453124 128.859375-122.480468 229.257813-254.871093 229.109375-6.679688-.007812-13.300781-.269531-19.851563-.78125-5.769531-.449219-11.46875-1.097656-17.109375-1.917969-1.539062-.21875-3.070312-.460937-4.597656-.710937-2.75-.449219-5.492187-.941406-8.210937-1.480469-.230469-.050781-.472657-.089844-.699219-.140625-2.660157-.539062-5.320313-1.109375-7.953125-1.726562-10.136719-2.382813-20.039063-5.363282-29.667969-8.902344-3.519531-1.300782-7-2.667969-10.449219-4.121094-92.421875-38.6875-157.300781-130.039062-157.191406-236.488281.148438-141.378907 114.890625-255.878907 256.269531-255.730469 116.742188.121094 215.160157 78.378906 245.820313 185.242188 1.800781 6.277343 3.371094 12.65625 4.691406 19.117187.507812 2.511719.988281 5.03125 1.429688 7.5625 1.140624 6.519531 2.019531 13.117187 2.648437 19.796875.761719 8.082031 1.152344 16.273438 1.140625 24.550781zm0 0" fill="#3a3aeb"/><path d="m510.601562 282.890625c-13.453124 128.859375-122.480468 229.257813-254.871093 229.109375-6.679688-.007812-13.300781-.269531-19.851563-.78125l-104.878906-105.21875 250-252.710938zm0 0" fill="#3233c4"/><path d="m381 153.289062v252.710938h-250v-300h203.339844zm0 0" fill="#fff"/><path d="m381 153.289062v252.710938h-125v-300h78.335938zm0 0" fill="#ebf6fc"/><path d="m334.175781 152.898438 46.824219.390624-46.660156-47.289062zm0 0" fill="#b4d2d7"/><path d="m161 325.824219h190v20h-190zm0 0" fill="#cde1e6"/><path d="m161 356h190v20h-190zm0 0" fill="#cde1e6"/><path d="m161 295.824219h190v20h-190zm0 0" fill="#cde1e6"/><g fill="#b4d2d7"><path d="m256 325.820312h95v20h-95zm0 0"/><path d="m256 295.820312h95v20h-95zm0 0"/><path d="m256 356h95v20h-95zm0 0"/></g><path d="m308.5 265.824219v-.242188h-.039062c-.804688-28.167969-23.972657-50.757812-52.460938-50.757812s-51.65625 22.589843-52.460938 50.757812h-.039062v.242188zm0 0" fill="#00ee84"/><path d="m308.5 265.582031v.242188h-52.5v-51c28.488281 0 51.660156 22.589843 52.460938 50.757812zm0 0" fill="#00cd71"/><path d="m286 174.75c0 16.570312-13.429688 30-30 30s-30-13.429688-30-30c0-16.566406 13.429688-30 30-30s30 13.433594 30 30zm0 0" fill="#ffbf00"/><path d="m286 174.75c0 16.570312-13.429688 30-30 30v-60c16.570312 0 30 13.429688 30 30zm0 0" fill="#ebb200"/></svg>